<svg xmlns="http://www.w3.org/2000/svg" width="82.104" height="104.639" viewBox="0 0 60 76.468"><defs><style>.cls-1{fill:#212526;fill-rule:evenodd}</style></defs><path id="logo" class="cls-1" d="M14282.9 937.19l-1.3 1.306v-2.623l-20.6-20.694-30 30.144v16.2l20.6 20.683 1.3-1.312v2.64l8.1 8.128 30-30.139v-16.2zm5.9 9.049l-27.8 27.928-5.9-5.921 10.4-10.487-7.6-7.614-3.5 3.524 4.1 4.09-6.9 6.956-18.4-18.481 27.8-27.93 18.4 18.481-6.9 6.956-4.1-4.086-3.5 3.525 7.6 7.615 10.4-10.482 5.9 5.921zm-42.8-1.024l2.5 2.54 14-14.031-2.5-2.521z" transform="translate(-14231 -915.188)"/></svg>