<svg xmlns="http://www.w3.org/2000/svg" viewBox="0 0 106 134"><path fill="#50A706" d="M94.7 42.4L88.1 49l-.1-.1V35.7L53 .7l-53 53v27.2l35 35 6.7-6.7v13.4L53 133.8l53-53V53.6L94.7 42.4zm-53 53v1.5-1.5z"/><path fill="#78CC00" d="M106 53.1v27.3l-53 53v-27.3z"/><path fill="#83FF00" d="M48.3 88.4L61.7 75 47.2 60.5l-6.7 6.7 6.7 6.7 1.1 1.1-13.2 13.2L0 53.1l53-53 35 35-13.2 13.3-7.8-7.8-6.7 6.7 14.4 14.5L88 48.5l6.6-6.6L106 53.1l-53 53-11.2-11.2 6.5-6.5zM29.3 56l26.6-26.6-4.9-4.8-26.5 26.6 4.8 4.8z"/><path fill="#78CC00" d="M88.1 48.5L74.8 61.8V48.4L88 35.2v13.2z"/><path fill="#569900" d="M74.8 48.4v13.4L60.4 47.3l6.7-6.6zM61.7 75L48.3 88.4V75l-1.1-1.1V60.5zm-5.9-45.6L29.3 56l-4.8-4.8L51 24.6zM53 106.1v27.3l-11.3-11.3V96.4l.1-1.5z"/><path fill="#78CC00" d="M48.3 75v13.4l-6.6 6.5v13.8l-6.6 6.7V88.2zm-1.1-14.5v13.4l-6.7-6.7z"/><path fill="#569900" d="M35.1 88.2v27.2L0 80.4V53.1z"/></svg>