<svg xmlns="http://www.w3.org/2000/svg" width="70" height="89.25" viewBox="0 0 70 89.25"><defs><style>.cls-1{fill:#fff;fill-rule:evenodd}</style></defs><path id="logo.svg" class="cls-1" d="M160.535 125.278l-1.524 1.527v-3.066L135 99.595l-35 35.168v18.905l24.01 24.132 1.524-1.534v3.088L135 188.83l35-35.162v-18.906zm6.892 10.559L135 168.418l-6.885-6.906 12.181-12.236-8.86-8.882-4.092 4.118 4.748 4.769-8.079 8.112v.007l-21.447-21.562L135 103.249l21.443 21.56-8.076 8.118-4.748-4.768-4.1 4.115 8.842 8.886 12.174-12.232 6.9 6.906zm-49.9-1.2l2.944 2.961 16.265-16.368-2.944-2.942z" transform="translate(-100 -99.594)"/></svg>